<?xml version="1.0" encoding="UTF-8"?>
<svg version="1.1" xmlns="http://www.w3.org/2000/svg" width="500" height="500">
<path d="M0 0 C0.86454803 -0.0127597 1.72909607 -0.02551941 2.61984253 -0.03866577 C4.01675827 -0.04200424 4.01675827 -0.04200424 5.44189453 -0.04541016 C6.4024173 -0.05206696 7.36294006 -0.05872375 8.35256958 -0.06558228 C10.385092 -0.07570951 12.41764768 -0.08039927 14.45019531 -0.08007812 C17.5560608 -0.08444643 20.66049974 -0.12075197 23.76611328 -0.15869141 C25.74136884 -0.16456054 27.71663115 -0.16852929 29.69189453 -0.17041016 C30.61912323 -0.18478119 31.54635193 -0.19915222 32.50167847 -0.21395874 C36.6515204 -0.18463683 39.06659765 -0.08410794 42.69628906 2.0637207 C44.59455516 4.17365064 45.71516143 5.76488771 46.76220703 8.38037109 C47.24089233 9.54681152 47.24089233 9.54681152 47.72924805 10.73681641 C48.04949951 11.55891602 48.36975098 12.38101563 48.69970703 13.22802734 C49.04509521 14.07977539 49.3904834 14.93152344 49.74633789 15.80908203 C52.06069362 21.54812094 54.24232919 27.33682433 56.42626953 33.12646484 C57.8663069 36.7044718 59.48011083 40.184732 61.13720703 43.66552734 C63.65925654 48.96532112 65.95131719 54.30040646 68.0871582 59.77075195 C70.73184659 66.4841917 73.59519737 73.1016468 76.44970703 79.72802734 C80.36082712 88.80927687 84.22744002 97.90586963 88.01220703 107.04052734 C91.07431573 114.43084383 94.19991705 121.78583192 97.43041992 129.10400391 C100.7911914 136.73298562 103.80502365 144.4748822 106.69970703 152.29052734 C110.44652718 144.53937363 113.66240546 136.83831814 116.48486328 128.70458984 C119.01517354 121.59368578 122.03324013 114.70051201 125.19970703 107.85302734 C126.9216254 104.10575953 128.47761275 100.33732787 129.93017578 96.47802734 C132.6943725 89.23824536 135.6366145 82.07826217 138.60379028 74.91970825 C142.88582563 64.58870638 147.1474424 54.25204809 151.26220703 43.85302734 C153.50921484 38.17445727 155.88323022 32.60305888 158.48486328 27.07568359 C160.35837564 22.78046072 161.92925176 18.3705462 163.46972656 13.94580078 C165.46144067 8.40111231 167.65789898 3.65173271 172.69970703 0.29052734 C174.66600037 0.02310181 174.66600037 0.02310181 176.92407227 0 C178.19570473 -0.01913956 178.19570473 -0.01913956 179.49302673 -0.03866577 C180.86183739 -0.04200424 180.86183739 -0.04200424 182.25830078 -0.04541016 C183.19899918 -0.05206696 184.13969757 -0.05872375 185.10890198 -0.06558228 C187.09854171 -0.07570788 189.08821539 -0.08039932 191.07788086 -0.08007812 C194.12231354 -0.08445126 197.16529654 -0.12077155 200.20947266 -0.15869141 C202.1424104 -0.16455957 204.07535504 -0.16852896 206.00830078 -0.17041016 C206.91881699 -0.18478119 207.82933319 -0.19915222 208.7674408 -0.21395874 C215.05241418 -0.16850951 215.05241418 -0.16850951 218.24658203 2.09667969 C220.36623057 5.29680767 220.7844096 8.5622952 221.26220703 12.29052734 C221.38096191 13.11810547 221.4997168 13.94568359 221.62207031 14.79833984 C222.77321769 23.12178756 223.5855362 31.48595873 224.43652344 39.84423828 C225.43920947 49.4481103 226.73755671 58.98853701 228.13720703 68.54052734 C229.96696659 81.03791812 231.64548175 93.5389709 233.17773438 106.07714844 C234.45211476 116.45241985 235.84253599 126.80922431 237.26220703 137.16552734 C238.66522613 147.40526079 240.01073704 157.64090871 241.13720703 167.91552734 C242.30320402 178.5076713 243.75042403 189.05232872 245.24029541 199.60269165 C246.02418224 205.15794563 246.79969099 210.71437811 247.57614136 216.27067566 C248.18301203 220.61085987 248.79289303 224.95055164 249.41162109 229.2890625 C249.95000109 233.07269417 250.47124942 236.85829142 250.97879028 240.6461792 C251.16612427 242.02224786 251.35960329 243.39749542 251.55953979 244.77178955 C251.83193135 246.64947724 252.08091491 248.5305167 252.32861328 250.41162109 C252.47371338 251.45761475 252.61881348 252.5036084 252.76831055 253.58129883 C252.68381134 256.91826574 251.99845633 257.91630678 249.69970703 260.29052734 C247.45420837 260.78500366 247.45420837 260.78500366 244.80102539 260.77636719 C243.80666977 260.78252045 242.81231415 260.78867371 241.78782654 260.79501343 C240.71589554 260.7806424 239.64396454 260.76627136 238.53955078 260.75146484 C237.43873672 260.7505484 236.33792267 260.74963196 235.20375061 260.74868774 C232.87610565 260.7426436 230.54846875 260.72687344 228.22094727 260.70214844 C224.64782227 260.66563582 221.07573346 260.66112901 217.50244141 260.66162109 C215.24396886 260.65179064 212.98550336 260.64013395 210.72705078 260.62646484 C209.65309555 260.6242392 208.57914032 260.62201355 207.47264099 260.61972046 C206.48143753 260.60696075 205.49023407 260.59420105 204.46899414 260.58105469 C203.59423935 260.57343109 202.71948456 260.5658075 201.81822205 260.55795288 C199.69970703 260.29052734 199.69970703 260.29052734 197.69970703 258.29052734 C195.28911878 249.61054095 194.79727107 240.2908604 193.82470703 231.35302734 C193.74044464 230.59173523 193.65618225 229.83044312 193.56936646 229.04608154 C191.96901011 214.56141192 190.66195181 200.05436155 189.38388062 185.53829956 C188.42198005 174.65265358 187.39603687 163.81566485 185.77587891 153.00439453 C184.44472834 144.00276158 183.62373542 134.94734778 182.78930664 125.88867188 C182.07138737 118.28699367 181.07110958 110.80252543 179.69970703 103.29052734 C179.27560547 104.48806641 178.85150391 105.68560547 178.41455078 106.91943359 C175.6061099 114.74958997 172.76467709 122.48558638 169.13720703 129.97802734 C166.53702366 135.35629389 164.34264953 140.79279467 162.31396484 146.41210938 C159.76672057 153.33793935 156.82197782 160.08420151 153.88720703 166.85302734 C149.62088388 176.69544607 145.56779336 186.58787253 141.72094727 196.60107422 C139.39024596 202.63309877 136.8409108 208.46301288 134.03564453 214.29052734 C132.00836994 218.84300361 130.49072777 223.55333135 128.97314453 228.29443359 C127.56052311 231.6179938 126.54960256 233.08679856 123.69970703 235.29052734 C121.06706763 235.68895649 118.85958535 235.85268429 116.23095703 235.82177734 C115.51363403 235.82560425 114.79631104 235.82943115 114.05725098 235.83337402 C112.54433789 235.83608961 111.03137758 235.8287529 109.51855469 235.81201172 C107.20677727 235.79059285 104.8981069 235.81182085 102.58642578 235.83740234 C101.11376269 235.834759 99.64110153 235.82963387 98.16845703 235.82177734 C97.47981567 235.82987427 96.79117432 235.83797119 96.08166504 235.84631348 C92.80788797 235.78256108 90.99809374 235.51618385 88.35791016 233.51953125 C86.77823021 231.39608044 85.69219074 229.54042443 84.69970703 227.09521484 C84.20857422 225.90593384 84.20857422 225.90593384 83.70751953 224.69262695 C83.37494141 223.85868408 83.04236328 223.02474121 82.69970703 222.16552734 C82.34650391 221.30386963 81.99330078 220.44221191 81.62939453 219.55444336 C79.65215568 214.71707358 77.73372785 209.85673805 75.82080078 204.99365234 C74.21400809 201.11943442 72.48110321 197.30356431 70.76220703 193.47802734 C68.49924825 188.43805748 66.30646451 183.41142345 64.38720703 178.22802734 C61.5756067 170.71149314 58.25866515 163.42348786 55.00048828 156.09204102 C51.44013995 148.05075026 48.06878531 139.94763228 44.77856445 131.79272461 C42.32889887 125.74813152 39.72435509 119.82313073 36.89111328 113.94677734 C35.6195772 111.11187722 34.63585264 108.25135997 33.69970703 105.29052734 C31.57814585 112.56575217 30.93994197 119.82274493 30.26220703 127.35302734 C30.00804048 130.06054316 29.74768047 132.76743222 29.48486328 135.47412109 C29.3872319 136.48188599 29.3872319 136.48188599 29.28762817 137.51000977 C28.71456858 143.32999912 27.99040963 149.12170196 27.19970703 154.91552734 C24.63968908 173.8830089 22.7830299 192.90743888 21.19970703 211.97802734 C20.31905055 222.5577222 19.36877137 233.11947225 18.13720703 243.66552734 C18.02248047 244.68090576 17.90775391 245.69628418 17.78955078 246.74243164 C16.47738025 257.51285413 16.47738025 257.51285413 13.69970703 260.29052734 C12.17584472 260.39411513 10.64723717 260.42903873 9.11987305 260.43579102 C7.65814415 260.44536079 7.65814415 260.44536079 6.16688538 260.4551239 C4.57631569 260.45679314 4.57631569 260.45679314 2.95361328 260.45849609 C1.33144142 260.46348869 1.33144142 260.46348869 -0.32350159 260.46858215 C-2.61597263 260.47365612 -4.90845108 260.47599034 -7.20092773 260.47583008 C-10.71919863 260.47801579 -14.23715578 260.49616462 -17.75537109 260.51513672 C-19.97737522 260.51807062 -22.19938085 260.52005544 -24.42138672 260.52099609 C-25.47974228 260.52818161 -26.53809784 260.53536713 -27.62852478 260.54277039 C-28.60616287 260.53969376 -29.58380096 260.53661713 -30.59106445 260.53344727 C-31.88559792 260.53558479 -31.88559792 260.53558479 -33.20628357 260.5377655 C-35.30029297 260.29052734 -35.30029297 260.29052734 -37.30029297 258.29052734 C-38.2993277 250.76533069 -37.08585702 243.10343357 -35.99951172 235.65380859 C-34.21535137 222.988607 -32.72019543 210.29383381 -31.24804688 197.58911133 C-30.80363004 193.75680369 -30.35493901 189.92501397 -29.90576172 186.09326172 C-28.26952693 172.06768671 -26.71904577 158.0378573 -25.31518555 143.98716736 C-24.63004178 137.19138538 -23.82966302 130.42696135 -22.86279297 123.66552734 C-21.29751072 112.65105566 -20.04941519 101.60744643 -18.83374023 90.54980469 C-17.95206945 82.60168835 -16.95005514 74.68212982 -15.83544922 66.76318359 C-13.98621857 53.53702077 -12.70721682 40.25792226 -11.42260742 26.96704102 C-11.11608869 23.81248204 -10.80055675 20.6589248 -10.48388672 17.50537109 C-10.39425156 16.55025131 -10.30461639 15.59513153 -10.21226501 14.61106873 C-9.32941475 5.91055889 -9.32941475 5.91055889 -7.30029297 2.29052734 C-4.20656953 0.22804505 -3.50828801 0.03519586 0 0 Z " fill="#FC3F64" transform="translate(143.30029296875,112.70947265625)"/>
<path d="M0 0 C0.33 0 0.66 0 1 0 C4.73403802 15.46958609 5.26623691 30.15275994 5 46 C5.66 46 6.32 46 7 46 C7.08302368 47.29417847 7.08302368 47.29417847 7.16772461 48.61450195 C7.37515449 51.81833312 7.58614965 55.02190391 7.79956055 58.2253418 C7.89115902 59.61131579 7.9813397 60.99738425 8.07006836 62.38354492 C8.1979202 64.37703375 8.3313099 66.37016497 8.46484375 68.36328125 C8.543396 69.56251221 8.62194824 70.76174316 8.70288086 71.99731445 C8.89287007 75.04739992 8.89287007 75.04739992 10 78 C10.068991 80.06145107 10.08467727 82.12501401 10.0625 84.1875 C10.05347656 85.27417969 10.04445313 86.36085938 10.03515625 87.48046875 C10.02355469 88.31191406 10.01195312 89.14335937 10 90 C12.31 90.33 14.62 90.66 17 91 C17 91.66 17 92.32 17 93 C14.125 93.125 14.125 93.125 11 93 C4.9381349 86.9381349 5.97783714 71.88127109 5.0625 63.4375 C4.97762329 62.66408264 4.89274658 61.89066528 4.80529785 61.09381104 C3.5024831 49.1984004 2.32164171 37.29339582 1.25 25.375 C1.18515411 24.66729462 1.12030823 23.95958923 1.05349731 23.23043823 C0.34822922 15.47838059 -0.20786273 7.79023337 0 0 Z " fill="#E66C85" transform="translate(332,280)"/>
<path d="M0 0 C0.33 0 0.66 0 1 0 C1.41058794 13.28251987 1.4825764 25.97128991 -1.42993164 38.97827148 C-3.27959788 47.50314122 -3.86438236 56.0421898 -4.40380859 64.73632812 C-4.50363037 66.32864258 -4.50363037 66.32864258 -4.60546875 67.953125 C-4.65856201 68.90348633 -4.71165527 69.85384766 -4.76635742 70.83300781 C-5 73 -5 73 -6 74 C-6.23287008 75.68183948 -6.41264166 77.3712416 -6.5625 79.0625 C-6.64628906 79.98160156 -6.73007813 80.90070313 -6.81640625 81.84765625 C-6.87699219 82.55792969 -6.93757813 83.26820313 -7 84 C-7.66 84 -8.32 84 -9 84 C-9.24381848 76.00623699 -8.29261969 68.28919982 -7.25 60.375 C-7.06937013 58.96979529 -6.88928542 57.56452041 -6.7097168 56.15917969 C-6.14732959 51.77179606 -5.57459446 47.38579934 -5 43 C-4.81133054 41.55827217 -4.62269093 40.11654044 -4.43408203 38.67480469 C-4.29593582 37.61907761 -4.29593582 37.61907761 -4.15499878 36.54202271 C-3.79314261 33.77352507 -3.4328295 31.0048271 -3.0723877 28.23614502 C-2.82016838 26.30860419 -2.5639552 24.38158727 -2.30761719 22.45458984 C-1.3274105 14.98026229 -0.5487683 7.51855781 0 0 Z " fill="#E7748C" transform="translate(130,156)"/>
<path d="M0 0 C0.33 0 0.66 0 1 0 C1.06993164 0.63574951 1.13986328 1.27149902 1.21191406 1.92651367 C2.81770039 16.42118783 4.60245548 30.87311466 6.72949219 45.30151367 C7.58674444 51.26927606 8.21587529 56.97037991 8 63 C5.1496974 59.79054398 4.56548301 57.50011452 4.3125 53.25 C4.24675781 52.26515625 4.18101562 51.2803125 4.11328125 50.265625 C4.05720703 49.14414062 4.05720703 49.14414062 4 48 C3.67 48 3.34 48 3 48 C1.12976816 31.96873076 -0.54346026 16.16291056 0 0 Z " fill="#E76782" transform="translate(382,268)"/>
<path d="M0 0 C0.99 0.33 1.98 0.66 3 1 C2.26422712 3.25556604 1.51224486 5.50338357 0.75 7.75 C0.54503906 8.38421875 0.34007812 9.0184375 0.12890625 9.671875 C-1.27175323 13.74652076 -2.56697568 16.38070086 -6 19 C-8.64612049 19.37417607 -10.86572873 19.51574311 -13.50390625 19.4609375 C-14.22360092 19.46002106 -14.94329559 19.45910461 -15.68479919 19.4581604 C-17.20196146 19.4521331 -18.71911231 19.43641295 -20.23608398 19.41162109 C-22.55822561 19.37506728 -24.87877229 19.37060218 -27.20117188 19.37109375 C-28.67709712 19.36126352 -30.15301157 19.34960693 -31.62890625 19.3359375 C-32.66961021 19.33259903 -32.66961021 19.33259903 -33.7313385 19.32919312 C-37.36474897 19.25759799 -38.89125745 19.07249503 -42 17 C-42 16.34 -42 15.68 -42 15 C-41.16726562 15.32613281 -40.33453125 15.65226562 -39.4765625 15.98828125 C-35.60155621 17.11595162 -32.4056337 17.23122482 -28.375 17.1875 C-27.67930908 17.18177979 -26.98361816 17.17605957 -26.2668457 17.17016602 C-20.93400678 17.09620917 -15.65699813 16.71340255 -10.35546875 16.12109375 C-8 16 -8 16 -5 17 C-5 13.7 -5 10.4 -5 7 C-4.01 7 -3.02 7 -2 7 C-2 6.01 -2 5.02 -2 4 C-1.34 4 -0.68 4 0 4 C0 2.68 0 1.36 0 0 Z " fill="#EA5372" transform="translate(273,329)"/>
<path d="M0 0 C0.86777573 -0.0127597 1.73555145 -0.02551941 2.62962341 -0.03866577 C4.03124474 -0.04200424 4.03124474 -0.04200424 5.46118164 -0.04541016 C6.42407608 -0.05206696 7.38697052 -0.05872375 8.37904358 -0.06558228 C10.41576222 -0.07570859 12.45251403 -0.0803993 14.48925781 -0.08007812 C17.60610564 -0.08445128 20.72153754 -0.12077121 23.83813477 -0.15869141 C25.81664554 -0.16455954 27.79516305 -0.16852895 29.77368164 -0.17041016 C30.70607162 -0.18478119 31.63846161 -0.19915222 32.59910583 -0.21395874 C39.09172285 -0.16808725 39.09172285 -0.16808725 42.30322266 2.31933594 C42.9866272 3.29507568 42.9866272 3.29507568 43.68383789 4.29052734 C42.90443848 4.1275415 42.12503906 3.96455566 41.32202148 3.79663086 C36.68086203 3.15100453 32.15222155 3.16694316 27.47290039 3.19287109 C26.02069595 3.19499352 26.02069595 3.19499352 24.53915405 3.19715881 C21.4623499 3.20273369 18.38561986 3.21528157 15.30883789 3.22802734 C13.21639103 3.23304559 11.12394302 3.23760793 9.03149414 3.24169922 C3.91558039 3.2526949 -1.20027832 3.2699422 -6.31616211 3.29052734 C-6.31616211 4.61052734 -6.31616211 5.93052734 -6.31616211 7.29052734 C-6.97616211 7.29052734 -7.63616211 7.29052734 -8.31616211 7.29052734 C-8.00366211 4.91552734 -8.00366211 4.91552734 -7.31616211 2.29052734 C-4.21857633 0.22547016 -3.5146691 0.03512048 0 0 Z " fill="#E78D9D" transform="translate(143.316162109375,112.70947265625)"/>
<path d="M0 0 C0.33 0 0.66 0 1 0 C1.07516846 0.67240723 1.15033691 1.34481445 1.2277832 2.03759766 C1.58667415 5.23370739 1.94897971 8.42941341 2.3125 11.625 C2.5122644 13.38263672 2.5122644 13.38263672 2.71606445 15.17578125 C3.69662615 23.67742924 4.79875679 32.15469938 6.08520508 40.61572266 C6.9311377 46.44704087 7.14801943 52.11054976 7 58 C4.03764446 55.03764446 3.84853451 52.25633813 3.53515625 48.24609375 C3.41817383 46.8394043 3.41817383 46.8394043 3.29882812 45.40429688 C3.14346502 43.45391207 2.98976998 41.50339355 2.83789062 39.55273438 C2.45193869 34.94327589 1.9504419 30.49787128 0.94140625 25.98046875 C-0.2109459 20.58655983 -0.22534849 15.37100956 -0.125 9.875 C-0.11597656 8.91851562 -0.10695313 7.96203125 -0.09765625 6.9765625 C-0.07439827 4.65076475 -0.04172213 2.32552706 0 0 Z " fill="#E5647F" transform="translate(363,121)"/>
<path d="M0 0 C1.27163246 -0.01913956 1.27163246 -0.01913956 2.56895447 -0.03866577 C3.93776512 -0.04200424 3.93776512 -0.04200424 5.33422852 -0.04541016 C6.27492691 -0.05206696 7.21562531 -0.05872375 8.18482971 -0.06558228 C10.17446944 -0.07570788 12.16414313 -0.08039932 14.15380859 -0.08007812 C17.19824128 -0.08445126 20.24122427 -0.12077155 23.28540039 -0.15869141 C25.21833814 -0.16455957 27.15128278 -0.16852896 29.08422852 -0.17041016 C29.99474472 -0.18478119 30.90526093 -0.19915222 31.84336853 -0.21395874 C38.13846216 -0.16843633 38.13846216 -0.16843633 41.39697266 2.17871094 C42.77563477 4.29052734 42.77563477 4.29052734 42.52563477 6.54052734 C42.27813477 7.11802734 42.03063477 7.69552734 41.77563477 8.29052734 C41.47850586 7.47777344 41.18137695 6.66501953 40.87524414 5.82763672 C39.09922733 3.16726581 39.09922733 3.16726581 36.85888672 2.82299805 C34.28805661 2.65956921 31.7576305 2.65065845 29.18188477 2.69677734 C28.2388147 2.69673706 27.29574463 2.69669678 26.32409668 2.69665527 C24.3301731 2.70201684 22.33625051 2.71962668 20.3425293 2.74853516 C17.28702356 2.79037141 14.23372214 2.78960713 11.17797852 2.78271484 C9.24176525 2.79320771 7.30556337 2.80614633 5.36938477 2.82177734 C4.45370728 2.82197876 3.53802979 2.82218018 2.59460449 2.8223877 C1.74362183 2.83829956 0.89263916 2.85421143 0.01586914 2.87060547 C-0.73231079 2.87902466 -1.48049072 2.88744385 -2.25134277 2.89611816 C-4.73063158 3.3917305 -5.54196128 4.46738194 -7.22436523 6.29052734 C-7.88436523 6.29052734 -8.54436523 6.29052734 -9.22436523 6.29052734 C-7.23897774 1.7088639 -4.99687711 0.05112188 0 0 Z " fill="#E78D9D" transform="translate(320.224365234375,112.70947265625)"/>
<path d="M0 0 C0.33 0 0.66 0 1 0 C1.02894547 3.45831586 1.04678 6.91660072 1.0625 10.375 C1.07087891 11.35984375 1.07925781 12.3446875 1.08789062 13.359375 C1.09111328 14.30039062 1.09433594 15.24140625 1.09765625 16.2109375 C1.10289307 17.08024902 1.10812988 17.94956055 1.11352539 18.84521484 C1 21 1 21 0 23 C-1.15051957 30.67013047 -1.09913746 38.25626283 -1 46 C2.3 46 5.6 46 9 46 C9 46.33 9 46.66 9 47 C7.20866022 47.05391993 5.41686101 47.09275571 3.625 47.125 C2.62726563 47.14820313 1.62953125 47.17140625 0.6015625 47.1953125 C-2 47 -2 47 -4 45 C-5.30066622 35.20277392 -3.18667268 25.00690633 -1.75390625 15.33203125 C-1.0045965 10.23503688 -0.46498248 5.13005262 0 0 Z " fill="#E5778F" transform="translate(110,326)"/>
<path d="M0 0 C0.33 0 0.66 0 1 0 C1.7892301 5.33557581 2.55561395 10.67375088 3.30102539 16.015625 C3.55778948 17.83227553 3.82077023 19.6480587 4.09008789 21.46289062 C4.47620058 24.07218448 4.83982839 26.68378372 5.19921875 29.296875 C5.38649788 30.51271271 5.38649788 30.51271271 5.57756042 31.75311279 C6.02565019 35.14955449 6.29714438 37.41567644 4.71875 40.51953125 C2.25093144 42.64522042 0.51355853 42.40063805 -2.6875 42.25 C-3.68136719 42.21390625 -4.67523438 42.1778125 -5.69921875 42.140625 C-6.45847656 42.09421875 -7.21773438 42.0478125 -8 42 C-8 41.34 -8 40.68 -8 40 C-4.37 40 -0.74 40 3 40 C2.85913398 37.39547729 2.71251536 34.79149803 2.5625 32.1875 C2.52318359 31.44951172 2.48386719 30.71152344 2.44335938 29.95117188 C2.25618965 26.76928658 2.01279207 24.03837622 1 21 C0.85284801 19.37432921 0.75278133 17.74413143 0.68359375 16.11328125 C0.64169922 15.17548828 0.59980469 14.23769531 0.55664062 13.27148438 C0.51732422 12.29501953 0.47800781 11.31855469 0.4375 10.3125 C0.39431641 9.32443359 0.35113281 8.33636719 0.30664062 7.31835938 C0.20058346 4.87904454 0.09852286 2.43962887 0 0 Z " fill="#E4708B" transform="translate(390,331)"/>
<path d="M0 0 C0.33 0 0.66 0 1 0 C1.25970853 7.45940624 1.06441213 14.77455755 -1 22 C-3 24 -3 24 -5.6015625 24.1953125 C-6.59929687 24.17210937 -7.59703125 24.14890625 -8.625 24.125 C-10.12933594 24.09792969 -10.12933594 24.09792969 -11.6640625 24.0703125 C-12.43492187 24.04710937 -13.20578125 24.02390625 -14 24 C-14 23.34 -14 22.68 -14 22 C-10.7 22 -7.4 22 -4 22 C-4.04125 21.00871094 -4.0825 20.01742188 -4.125 18.99609375 C-3.99082164 14.70657916 -3.18795232 11.15210613 -2 7.0625 C-1.71382812 6.03672852 -1.71382812 6.03672852 -1.421875 4.99023438 C-0.95595063 3.32455474 -0.47911589 1.66193325 0 0 Z " fill="#E46984" transform="translate(160,349)"/>
<path d="M0 0 C0.33 0 0.66 0 1 0 C2.91967736 6.14296755 3.37272265 12.06071086 3.65795898 18.45117188 C3.80274956 21.52530056 4.02063213 24.06189639 5 27 C5.068991 29.06145107 5.08467727 31.12501401 5.0625 33.1875 C5.05347656 34.27417969 5.04445313 35.36085938 5.03515625 36.48046875 C5.02355469 37.31191406 5.01195312 38.14335937 5 39 C7.31 39.33 9.62 39.66 12 40 C12 40.66 12 41.32 12 42 C9.125 42.125 9.125 42.125 6 42 C-0.67150311 35.32849689 0.21110929 15.81869967 -0.125 6.5546875 C-0.125 4.3693944 -0.07161047 2.18411947 0 0 Z " fill="#E7879A" transform="translate(337,331)"/>
<path d="M0 0 C0.33 0 0.66 0 1 0 C1.11593506 0.97348389 1.23187012 1.94696777 1.35131836 2.94995117 C1.78357038 6.57502852 2.21842583 10.19978969 2.65405273 13.82446289 C2.84193366 15.39078456 3.02911637 16.95719016 3.21557617 18.52368164 C3.48431096 20.78033725 3.7555874 23.03667527 4.02734375 25.29296875 C4.10967758 25.98899704 4.19201141 26.68502533 4.27684021 27.40214539 C4.70972975 30.97481227 5.27743648 34.47591825 6 38 C6.06371368 39.60303627 6.08644214 41.20837672 6.0625 42.8125 C6.05347656 43.60269531 6.04445313 44.39289063 6.03515625 45.20703125 C6.01775391 46.09455078 6.01775391 46.09455078 6 47 C5.67 47 5.34 47 5 47 C3.42788983 41.44521073 2.64415697 36.17769976 2.24609375 30.41796875 C2.07473094 27.85995186 2.07473094 27.85995186 1 25 C0.79665517 22.51749858 0.62872168 20.04873536 0.5 17.5625 C0.2935568 13.59802593 -0.0165584 9.85543918 -1 6 C-0.72949547 3.99053778 -0.40632091 1.98645776 0 0 Z " fill="#E77893" transform="translate(371,184)"/>
<path d="M0 0 C0.99 0 1.98 0 3 0 C3.33 1.65 3.66 3.3 4 5 C4.66 5 5.32 5 6 5 C6 7.31 6 9.62 6 12 C6.66 12 7.32 12 8 12 C8.67679658 13.725227 9.34102 15.45538939 10 17.1875 C10.556875 18.63189453 10.556875 18.63189453 11.125 20.10546875 C11.97636772 22.92182358 12.17072647 25.08164439 12 28 C8.55938836 24.14651496 7.09433333 19.5114753 5.3125 14.75 C4.99216797 13.90953125 4.67183594 13.0690625 4.34179688 12.203125 C3.55545677 10.13751517 2.77508231 8.06985462 2 6 C1.34 6.66 0.68 7.32 0 8 C0 5.36 0 2.72 0 0 Z " fill="#E86784" transform="translate(175,212)"/>
<path d="M0 0 C0.33 0 0.66 0 1 0 C1.02886338 4.47915328 1.04675187 8.95828291 1.0625 13.4375 C1.07087891 14.71689453 1.07925781 15.99628906 1.08789062 17.31445312 C1.09111328 18.52939453 1.09433594 19.74433594 1.09765625 20.99609375 C1.10289307 22.12200928 1.10812988 23.2479248 1.11352539 24.40795898 C1 27 1 27 0 28 C-0.23527773 30.34987262 -0.41386417 32.70556039 -0.5625 35.0625 C-0.64628906 36.35285156 -0.73007813 37.64320313 -0.81640625 38.97265625 C-0.87699219 39.97167969 -0.93757812 40.97070312 -1 42 C-1.33 42 -1.66 42 -2 42 C-3.22470764 32.5798553 -2.63271319 23.63442489 -1.5625 14.25 C-1.41238031 12.85948594 -1.26328571 11.46886081 -1.11523438 10.078125 C-0.753503 6.71752384 -0.38157769 3.35839547 0 0 Z " fill="#EA6C83" transform="translate(134,120)"/>
<path d="M0 0 C0.33 0 0.66 0 1 0 C0.67 3.96 0.34 7.92 0 12 C-1.32 12.33 -2.64 12.66 -4 13 C-4 15.97 -4 18.94 -4 22 C-4.66 22 -5.32 22 -6 22 C-6.33 22.99 -6.66 23.98 -7 25 C-7.99 25.33 -8.98 25.66 -10 26 C-7.70175036 16.89455379 -3.8597477 8.5231689 0 0 Z " fill="#E9728C" transform="translate(303,137)"/>
<path d="M0 0 C0.33 0 0.66 0 1 0 C1.22587417 8.4232243 0.35362531 16.69716294 -0.5 25.0625 C-0.64493534 26.51493369 -0.78946981 27.96740744 -0.93359375 29.41992188 C-1.2844426 32.94708837 -1.64071117 36.47368203 -2 40 C-2.33 40 -2.66 40 -3 40 C-4.44309805 33.12762396 -3.67286552 26.51156835 -3.0625 19.5625 C-2.96259766 18.35400391 -2.86269531 17.14550781 -2.75976562 15.90039062 C-2.51345535 12.93293823 -2.25999893 9.96627909 -2 7 C-1.34 7 -0.68 7 0 7 C0 4.69 0 2.38 0 0 Z " fill="#E88098" transform="translate(166,290)"/>
<path d="M0 0 C0.33 0 0.66 0 1 0 C2.61596173 10.50375123 2.73982504 19.93808978 -1 30 C-1.33 30 -1.66 30 -2 30 C-2.40820882 19.90817093 -1.16108676 10.00400644 0 0 Z " fill="#EA758C" transform="translate(117,264)"/>
<path d="M0 0 C1.12230581 3.3199197 0.88691534 5.14652241 -0.328125 8.40625 C-0.63363281 9.23253906 -0.93914062 10.05882812 -1.25390625 10.91015625 C-1.74697266 12.19212891 -1.74697266 12.19212891 -2.25 13.5 C-2.56324219 14.35464844 -2.87648438 15.20929688 -3.19921875 16.08984375 C-4.74722819 20.20716348 -6.22665234 23.5435907 -9 27 C-9 25.02 -9 23.04 -9 21 C-8.34 21 -7.68 21 -7 21 C-7 18.69 -7 16.38 -7 14 C-6.34 14 -5.68 14 -5 14 C-5 13.01 -5 12.02 -5 11 C-4.34 11 -3.68 11 -3 11 C-2.814375 9.1128125 -2.814375 9.1128125 -2.625 7.1875 C-2.30131941 3.89674737 -1.93395001 2.90092502 0 0 Z " fill="#E76782" transform="translate(322,212)"/>
<path d="M0 0 C0.99 0 1.98 0 3 0 C3 1.32 3 2.64 3 4 C3.66 4 4.32 4 5 4 C5 6.31 5 8.62 5 11 C5.66 11 6.32 11 7 11 C7.28875 11.886875 7.5775 12.77375 7.875 13.6875 C8.83148748 16.50382424 9.86798946 19.25083156 11 22 C10.34 22.66 9.68 23.32 9 24 C0 4.93032787 0 4.93032787 0 0 Z " fill="#E9738A" transform="translate(206,284)"/>
<path d="M0 0 C1.10096216 3.26618773 0.9223497 5.01553949 -0.375 8.1875 C-0.65085937 8.88230469 -0.92671875 9.57710937 -1.2109375 10.29296875 C-2 12 -2 12 -3 13 C-3.36760731 15.32817964 -3.70241581 17.6618385 -4 20 C-4.66 20 -5.32 20 -6 20 C-6.33 21.32 -6.66 22.64 -7 24 C-7.66 23.67 -8.32 23.34 -9 23 C-6.54234965 15.08090444 -3.33181427 7.58014704 0 0 Z " fill="#E67B93" transform="translate(269,220)"/>
<path d="M0 0 C0.99 0 1.98 0 3 0 C2.38965243 3.48576282 1.48391539 6.5871923 0.15234375 9.86328125 C-0.20537109 10.74951172 -0.56308594 11.63574219 -0.93164062 12.54882812 C-1.49141602 13.9168457 -1.49141602 13.9168457 -2.0625 15.3125 C-2.43955078 16.24384766 -2.81660156 17.17519531 -3.20507812 18.13476562 C-4.13283125 20.42478917 -5.06458001 22.71309996 -6 25 C-6.33 25 -6.66 25 -7 25 C-6.67 22.36 -6.34 19.72 -6 17 C-5.34 17 -4.68 17 -4 17 C-4 15.02 -4 13.04 -4 11 C-3.34 11 -2.68 11 -2 11 C-1.34 7.37 -0.68 3.74 0 0 Z " fill="#E76C87" transform="translate(289,289)"/>
<path d="M0 0 C1.13671875 1.60546875 1.13671875 1.60546875 2 4 C1.20703125 6.98828125 1.20703125 6.98828125 -0.1875 10.3125 C-0.65929687 11.4571875 -1.13109375 12.601875 -1.6171875 13.78125 C-2.07351563 14.8434375 -2.52984375 15.905625 -3 17 C-3.33257812 17.7940625 -3.66515625 18.588125 -4.0078125 19.40625 C-4.65690482 20.94390559 -5.32543303 22.47334844 -6 24 C-7.37432457 20.18243176 -6.67975039 16.92744671 -6 13 C-5.34 13 -4.68 13 -4 13 C-4 11.02 -4 9.04 -4 7 C-2.68 6.67 -1.36 6.34 0 6 C0 4.02 0 2.04 0 0 Z " fill="#EA6A88" transform="translate(311,237)"/>
<path d="M0 0 C2.13228561 5.66301827 -0.83714729 11.69362225 -3 17 C-4.54662919 19.19324252 -5.83867527 20.37900645 -8 22 C-5.92957946 14.39162534 -3.14169523 7.2271408 0 0 Z " fill="#E76D86" transform="translate(288,173)"/>
<path d="M0 0 C0.66 0 1.32 0 2 0 C2.81898622 3.57350041 3.11811958 6.85659479 3.09765625 10.51953125 C3.09282227 12.0519043 3.09282227 12.0519043 3.08789062 13.61523438 C3.07951172 14.67033203 3.07113281 15.72542969 3.0625 16.8125 C3.05798828 17.88693359 3.05347656 18.96136719 3.04882812 20.06835938 C3.03707729 22.71229683 3.02064787 25.35611952 3 28 C2.67 28 2.34 28 2 28 C-0.29612756 9.17995444 -0.29612756 9.17995444 0 0 Z " fill="#E77A92" transform="translate(324,213)"/>
<path d="M0 0 C0.84256348 0.32145996 1.68512695 0.64291992 2.55322266 0.97412109 C6.2253317 2.06706643 9.32413089 2.31600336 13.1484375 2.4140625 C13.80582916 2.43342865 14.46322083 2.4527948 15.14053345 2.4727478 C17.21856135 2.53202461 19.29664624 2.57871794 21.375 2.625 C22.7929915 2.66322778 24.21096097 2.70228223 25.62890625 2.7421875 C29.08573461 2.83768171 32.54272983 2.92190189 36 3 C36 3.33 36 3.66 36 4 C31.35524041 4.04944066 26.71063404 4.08573863 22.06567383 4.10986328 C20.48556856 4.11992041 18.9054819 4.13356785 17.32543945 4.15087891 C15.0541525 4.17514022 12.78311164 4.18648582 10.51171875 4.1953125 C9.80536789 4.20563507 9.09901703 4.21595764 8.3712616 4.22659302 C4.67802208 4.22743775 3.16080784 4.10720523 0 2 C0 1.34 0 0.68 0 0 Z " fill="#E46A82" transform="translate(231,344)"/>
<path d="M0 0 C0.33 0 0.66 0 1 0 C1.125 5.75 1.125 5.75 0 8 C0.66 8 1.32 8 2 8 C0.87172132 11.38483604 -0.63785462 13.35153397 -3 16 C-3.66 16 -4.32 16 -5 16 C-5 17.65 -5 19.3 -5 21 C-5.66 20.67 -6.32 20.34 -7 20 C-4.80962826 13.27954125 -2.44234339 6.63275997 0 0 Z " fill="#EA7288" transform="translate(259,243)"/>
<path d="M0 0 C0.33 0 0.66 0 1 0 C2.20731692 8.68836995 3.38064163 17.20294908 3 26 C0.65360565 23.65360565 0.05163525 22.03170551 -0.11352539 18.73168945 C-0.10828857 17.86761475 -0.10305176 17.00354004 -0.09765625 16.11328125 C-0.09443359 15.17548828 -0.09121094 14.23769531 -0.08789062 13.27148438 C-0.07532227 11.80678711 -0.07532227 11.80678711 -0.0625 10.3125 C-0.05798828 9.32443359 -0.05347656 8.33636719 -0.04882812 7.31835938 C-0.03704303 4.87884526 -0.02059011 2.43945311 0 0 Z " fill="#EB7C92" transform="translate(367,153)"/>
<path d="M0 0 C2.53188326 2.53188326 3.24553109 4.89965012 4.5 8.25 C4.9228125 9.36890625 5.345625 10.4878125 5.78125 11.640625 C6.90748115 14.74498008 7.97289681 17.86162915 9 21 C8.34 21.33 7.68 21.66 7 22 C5.5393715 19.35261084 5 18.10551666 5 15 C4.34 15 3.68 15 3 15 C2.49363393 13.25183142 1.99515381 11.50137737 1.5 9.75 C1.2215625 8.77546875 0.943125 7.8009375 0.65625 6.796875 C0 4 0 4 0 0 Z " fill="#E66985" transform="translate(194,134)"/>
<path d="M0 0 C0.99 0.33 1.98 0.66 3 1 C2.2330666 3.04313484 1.46126798 5.08444372 0.6875 7.125 C0.04361328 8.83042969 0.04361328 8.83042969 -0.61328125 10.5703125 C-1.92372072 13.81134308 -3.39219291 16.89754526 -5 20 C-5.33 20 -5.66 20 -6 20 C-6 17.69 -6 15.38 -6 13 C-5.34 13 -4.68 13 -4 13 C-4 12.01 -4 11.02 -4 10 C-3.34 10 -2.68 10 -2 10 C-2 8.35 -2 6.7 -2 5 C-1.34 5 -0.68 5 0 5 C0 3.35 0 1.7 0 0 Z " fill="#E96B84" transform="translate(301,262)"/>
<path d="M0 0 C2 2 2 2 2.1875 5.5625 C2 9 2 9 1 10 C0.76712992 11.68183948 0.58735834 13.3712416 0.4375 15.0625 C0.31181641 16.44115234 0.31181641 16.44115234 0.18359375 17.84765625 C0.12300781 18.55792969 0.06242187 19.26820313 0 20 C-0.66 20 -1.32 20 -2 20 C-2.22731216 13.06697907 -1.42002108 6.7831364 0 0 Z " fill="#E3667C" transform="translate(123,220)"/>
<path d="M0 0 C0.99 0.33 1.98 0.66 3 1 C3 1.99 3 2.98 3 4 C3.66 4 4.32 4 5 4 C5.20496094 4.69867188 5.40992188 5.39734375 5.62109375 6.1171875 C5.89050781 7.02726562 6.15992188 7.93734375 6.4375 8.875 C6.70433594 9.77992188 6.97117188 10.68484375 7.24609375 11.6171875 C7.92613826 13.98275381 7.92613826 13.98275381 9 16 C8.34 16.99 7.68 17.98 7 19 C6.02016072 16.39608461 5.04110206 13.79188032 4.0625 11.1875 C3.64581055 10.08051758 3.64581055 10.08051758 3.22070312 8.95117188 C2.95322266 8.23896484 2.68574219 7.52675781 2.41015625 6.79296875 C2.16402588 6.1383667 1.91789551 5.48376465 1.66430664 4.80932617 C1.07962967 3.21688185 0.53644441 1.60933324 0 0 Z " fill="#E76C89" transform="translate(220,318)"/>
<path d="M0 0 C2.35119399 3.52679099 2.21443452 5.02879485 2.125 9.1875 C2.10695313 10.27417969 2.08890625 11.36085938 2.0703125 12.48046875 C2.03550781 13.72763672 2.03550781 13.72763672 2 15 C4.31 15.33 6.62 15.66 9 16 C9 16.66 9 17.32 9 18 C6.125 18.125 6.125 18.125 3 18 C-0.63002289 14.36997711 -0.05557854 9.51155044 -0.0625 4.625 C-0.04658248 3.08327474 -0.02741912 1.5415636 0 0 Z " fill="#E07287" transform="translate(340,355)"/>
<path d="M0 0 C0.33 0 0.66 0 1 0 C1 3.3 1 6.6 1 10 C0.01 10.33 -0.98 10.66 -2 11 C-3.22520264 14.00847418 -3.22520264 14.00847418 -4 17 C-4.66 17 -5.32 17 -6 17 C-4.33846988 11.14340094 -2.52958084 5.5409866 0 0 Z " fill="#E8748C" transform="translate(276,202)"/>
<path d="M0 0 C0.33 0 0.66 0 1 0 C3.29612756 17.85649203 3.29612756 17.85649203 3 26 C2.67 26 2.34 26 2 26 C0.01088693 20.22843962 -0.2451155 15.13757259 -0.125 9.0625 C-0.11597656 8.18787109 -0.10695313 7.31324219 -0.09765625 6.41210938 C-0.0742957 4.27461936 -0.03843247 2.13727214 0 0 Z " fill="#E8889C" transform="translate(382,268)"/>
<path d="M0 0 C0.33 0 0.66 0 1 0 C1.33745354 2.39531756 1.6700829 4.79114268 2 7.1875 C2.14308594 8.19780273 2.14308594 8.19780273 2.2890625 9.22851562 C2.78324613 12.84664577 3.11346131 16.34796401 3 20 C2.01 19.34 1.02 18.68 0 18 C-0.34057617 16.12060547 -0.34057617 16.12060547 -0.29296875 13.8671875 C-0.28330078 13.06152344 -0.27363281 12.25585938 -0.26367188 11.42578125 C-0.23853516 10.58402344 -0.21339844 9.74226563 -0.1875 8.875 C-0.17396484 8.02550781 -0.16042969 7.17601562 -0.14648438 6.30078125 C-0.11108219 4.20025163 -0.05727401 2.10004707 0 0 Z " fill="#EA6D82" transform="translate(379,247)"/>
<path d="M0 0 C0.33 0 0.66 0 1 0 C1 2.64 1 5.28 1 8 C0.34 8 -0.32 8 -1 8 C-0.97679687 8.97582031 -0.95359375 9.95164063 -0.9296875 10.95703125 C-0.91164062 12.22933594 -0.89359375 13.50164062 -0.875 14.8125 C-0.85179687 16.07707031 -0.82859375 17.34164062 -0.8046875 18.64453125 C-1 22 -1 22 -3 25 C-2.88553375 21.95760755 -2.75879267 18.91655331 -2.625 15.875 C-2.5940625 15.0190625 -2.563125 14.163125 -2.53125 13.28125 C-2.31114982 8.5124128 -1.80839517 4.48423193 0 0 Z " fill="#E74567" transform="translate(174,212)"/>
<path d="M0 0 C1.13441522 3.82161154 0.61768994 5.33891223 -1 9 C-1.309375 10.216875 -1.61875 11.43375 -1.9375 12.6875 C-3 16 -3 16 -6 18 C-5.31583566 13.82423832 -3.98634991 10.11919593 -2.4375 6.1875 C-1.75494141 4.44533203 -1.75494141 4.44533203 -1.05859375 2.66796875 C-0.70925781 1.78753906 -0.35992187 0.90710938 0 0 Z " fill="#E6758D" transform="translate(310,119)"/>
<path d="M0 0 C2.48794878 3.31726504 3.52821942 4.99613909 4.6875 8.75 C5.06455078 9.94882813 5.06455078 9.94882813 5.44921875 11.171875 C5.63097656 11.77515625 5.81273437 12.3784375 6 13 C5.01 13 4.02 13 3 13 C2.67 12.34 2.34 11.68 2 11 C1.01 11.495 1.01 11.495 0 12 C0 8.04 0 4.08 0 0 Z " fill="#EB6C87" transform="translate(203,155)"/>
<path d="M0 0 C2.57833439 2.57833439 3.3761471 5.10325781 4.6875 8.5 C5.14511719 9.6653125 5.60273438 10.830625 6.07421875 12.03125 C7 15 7 15 6 17 C5.34 16.67 4.68 16.34 4 16 C4 15.01 4 14.02 4 13 C3.34 13 2.68 13 2 13 C1.66127487 11.58461283 1.32925376 10.16762037 1 8.75 C0.814375 7.96109375 0.62875 7.1721875 0.4375 6.359375 C0 4 0 4 0 0 Z " fill="#E6748F" transform="translate(209,169)"/>
<path d="M0 0 C0.33 0 0.66 0 1 0 C2.23107719 7.72720775 3.2700558 15.1683819 3 23 C2.67 23 2.34 23 2 23 C-0.48260659 15.39701733 -0.18508331 7.89688807 0 0 Z " fill="#E26D84" transform="translate(374,208)"/>
<path d="M0 0 C0.99 0.33 1.98 0.66 3 1 C3 2.65 3 4.3 3 6 C2.34 6 1.68 6 1 6 C0.67 6.99 0.34 7.98 0 9 C-0.99 9.33 -1.98 9.66 -3 10 C-2.01 6.7 -1.02 3.4 0 0 Z " fill="#E7617E" transform="translate(296,153)"/>
<path d="M0 0 C0.99 0.33 1.98 0.66 3 1 C1.58192622 5.47238653 -0.11304374 9.71146306 -2 14 C-2.33 14 -2.66 14 -3 14 C-3 11.36 -3 8.72 -3 6 C-2.01 6 -1.02 6 0 6 C0 4.02 0 2.04 0 0 Z " fill="#E76A88" transform="translate(279,314)"/>
<path d="M0 0 C2.34914492 2.34914492 2.73140357 3.95679446 3.625 7.125 C3.88539063 8.03507813 4.14578125 8.94515625 4.4140625 9.8828125 C4.70410156 10.93082031 4.70410156 10.93082031 5 12 C4.34 12.66 3.68 13.32 3 14 C2.67 12.02 2.34 10.04 2 8 C1.34 8 0.68 8 0 8 C0 5.36 0 2.72 0 0 Z " fill="#E8718C" transform="translate(241,245)"/>
<path d="M0 0 C2.25597827 2.25597827 2.96574192 4.04603867 4.125 7 C4.47820312 7.886875 4.83140625 8.77375 5.1953125 9.6875 C6 12 6 12 6 14 C5.01 13.67 4.02 13.34 3 13 C3 11.68 3 10.36 3 9 C2.34 9 1.68 9 1 9 C0.67 6.03 0.34 3.06 0 0 Z " fill="#E5748E" transform="translate(220,195)"/>
<path d="M0 0 C0.66 0 1.32 0 2 0 C2 1.98 2 3.96 2 6 C1.34 6 0.68 6 0 6 C-0.33 7.32 -0.66 8.64 -1 10 C-1.66 9.67 -2.32 9.34 -3 9 C-2.01 6.03 -1.02 3.06 0 0 Z " fill="#E76983" transform="translate(263,234)"/>
<path d="M0 0 C0.99 0.33 1.98 0.66 3 1 C2.01 3.97 1.02 6.94 0 10 C-0.66 10 -1.32 10 -2 10 C-2 8.02 -2 6.04 -2 4 C-1.34 4 -0.68 4 0 4 C0 2.68 0 1.36 0 0 Z " fill="#E66B84" transform="translate(273,329)"/>
<path d="M0 0 C0.33 0 0.66 0 1 0 C1 3.3 1 6.6 1 10 C-0.32 9.67 -1.64 9.34 -3 9 C-2.01 6.03 -1.02 3.06 0 0 Z " fill="#EC6583" transform="translate(292,163)"/>
<path d="M0 0 C2.34914492 2.34914492 2.73140357 3.95679446 3.625 7.125 C3.88539063 8.03507812 4.14578125 8.94515625 4.4140625 9.8828125 C4.70410156 10.93082031 4.70410156 10.93082031 5 12 C4.01 11.67 3.02 11.34 2 11 C0.60955102 7.12137916 0 4.13537997 0 0 Z " fill="#E7778D" transform="translate(187,117)"/>
<path d="M0 0 C0.99 0 1.98 0 3 0 C3 1.32 3 2.64 3 4 C3.66 4 4.32 4 5 4 C5 5.32 5 6.64 5 8 C4.01 7.67 3.02 7.34 2 7 C0.8125 3.4375 0.8125 3.4375 0 0 Z " fill="#E25C7E" transform="translate(206,284)"/>
<path d="M0 0 C3 1 3 1 5 4 C4.625 6.6875 4.625 6.6875 4 9 C1.49701566 6.06171403 0.53069061 3.82097239 0 0 Z " fill="#EA6282" transform="translate(198,266)"/>
<path d="M0 0 C0.33 0 0.66 0 1 0 C1.2358396 5.77807024 0.86783046 10.51324804 -1 16 C-1.33 16 -1.66 16 -2 16 C-2.20674944 10.21101581 -1.59162079 5.57067277 0 0 Z " fill="#E74766" transform="translate(120,256)"/>
<path d="M0 0 C2.34914492 2.34914492 2.73140357 3.95679446 3.625 7.125 C3.88539063 8.03507813 4.14578125 8.94515625 4.4140625 9.8828125 C4.70410156 10.93082031 4.70410156 10.93082031 5 12 C1.17067834 9.63347921 1.17067834 9.63347921 0.390625 6.73828125 C0.34421875 5.93777344 0.2978125 5.13726562 0.25 4.3125 C0.19328125 3.50425781 0.1365625 2.69601563 0.078125 1.86328125 C0.05234375 1.24839844 0.0265625 0.63351563 0 0 Z " fill="#E37B90" transform="translate(194,134)"/>
<path d="M0 0 C1.39864092 3.17872935 0.89282517 4.30111022 -0.3125 7.6875 C-2 11 -2 11 -4 12 C-3.52309796 10.37433394 -3.04340334 8.74948689 -2.5625 7.125 C-2.29566406 6.22007812 -2.02882813 5.31515625 -1.75390625 4.3828125 C-1 2 -1 2 0 0 Z " fill="#E98A9E" transform="translate(288,173)"/>
<path d="M0 0 C2.6855594 2.6855594 3.06049974 5.37621328 4 9 C2.68 8.34 1.36 7.68 0 7 C0 4.69 0 2.38 0 0 Z " fill="#E9708A" transform="translate(235,231)"/>
<path d="M0 0 C2.50298434 2.93828597 3.46930939 5.17902761 4 9 C2.68 8.34 1.36 7.68 0 7 C0 4.69 0 2.38 0 0 Z " fill="#E87592" transform="translate(231,222)"/>
<path d="M0 0 C0.99 0 1.98 0 3 0 C3.75 1.75 3.75 1.75 4 4 C2.0625 6.25 2.0625 6.25 0 8 C0 5.36 0 2.72 0 0 Z " fill="#F37E9B" transform="translate(175,212)"/>
<path d="M0 0 C0.33 0 0.66 0 1 0 C2.07421875 5.95703125 2.07421875 5.95703125 2 8 C1.01 8.99 0.02 9.98 -1 11 C-0.67 7.37 -0.34 3.74 0 0 Z " fill="#E1849A" transform="translate(394,361)"/>
<path d="M0 0 C0.66 0 1.32 0 2 0 C3.6875 2.3125 3.6875 2.3125 5 5 C4.67 5.99 4.34 6.98 4 8 C1.84622436 5.37801226 0.59927826 3.35595828 0 0 Z " fill="#E97892" transform="translate(216,309)"/>
<path d="M0 0 C0.66 0 1.32 0 2 0 C2.33 1.65 2.66 3.3 3 5 C2.67 5 2.34 5 2 5 C1.67 6.65 1.34 8.3 1 10 C0.67 10 0.34 10 0 10 C0 6.7 0 3.4 0 0 Z " fill="#F0738B" transform="translate(324,213)"/>
<path d="M0 0 C0.33 0 0.66 0 1 0 C1.36256858 1.4562672 1.71479793 2.91511185 2.0625 4.375 C2.35833984 5.59316406 2.35833984 5.59316406 2.66015625 6.8359375 C3 9 3 9 2 11 C1.34 11 0.68 11 0 11 C0 7.37 0 3.74 0 0 Z " fill="#E14966" transform="translate(131,156)"/>
</svg>
